<svg width="100" height="100" viewBox="0 0 100 100" fill="none" xmlns="http://www.w3.org/2000/svg">
<path d="M90.428 69.1274C88.9019 68.0498 87.6325 67.1757 87.3184 67.5109C87.0104 67.8312 87.8013 69.3601 89.3532 70.6492C90.898 71.9504 92.5956 72.3085 92.8768 71.7639C93.1652 71.2136 91.9476 70.2068 90.428 69.1274Z" fill="#D91895"/>
<path d="M85.7339 69.7886C84.3486 68.3466 83.2122 67.4752 82.9723 68.0511C82.7397 68.6178 83.5779 70.4606 85.0587 71.9832C86.5354 73.5169 88.0205 74.0482 88.1575 73.3904C88.3009 72.7313 87.1155 71.2336 85.7339 69.7886Z" fill="#D91895"/>
<path d="M81.0737 69.8617C79.7626 68.3299 78.6778 67.7114 78.4935 68.6025C78.6487 70.3198 79.4287 71.9231 80.6886 73.1145C82.1459 74.6783 83.4793 75.0819 83.5114 74.1672C83.1047 72.5414 82.2625 71.0541 81.0737 69.8617Z" fill="#D91895"/>
<path d="M76.3142 69.8969C75.0158 68.4399 73.9224 68.1957 73.7859 69.4165C73.9303 71.2889 74.7722 73.0416 76.1485 74.335C77.6249 75.8112 78.8617 75.9245 78.8169 74.6894C78.4523 72.8918 77.5852 71.2314 76.3142 69.8969V69.8969Z" fill="#D91895"/>
<path d="M71.3631 70.0749C70.0284 68.7858 68.8879 68.9545 68.7901 70.4905C68.851 71.4818 69.1094 72.4514 69.5504 73.3435C69.9915 74.2356 70.6065 75.0327 71.36 75.6889C72.8898 77.0117 74.0788 76.7523 73.9796 75.1904C73.6761 73.2545 72.76 71.4635 71.3631 70.0749V70.0749Z" fill="#D91895"/>
<path d="M66.1552 70.3887C64.7463 69.3046 63.5265 69.8761 63.4566 71.6924C63.4988 72.7382 63.7709 73.7623 64.2539 74.6935C64.737 75.6246 65.4194 76.4405 66.2536 77.0842C67.8658 78.2323 69.0553 77.5796 68.9236 75.7038C68.6988 73.6538 67.7122 71.7596 66.1552 70.3887V70.3887Z" fill="#D91895"/>
<path d="M60.8012 71.196C59.3527 70.1032 58.0479 70.6592 57.896 72.4502C57.9013 73.4958 58.1461 74.5266 58.6121 75.465C59.0781 76.4035 59.7532 77.2253 60.5864 77.8685C62.2265 79.0678 63.5267 78.4628 63.4851 76.5715C63.4188 75.5445 63.1475 74.5407 62.6869 73.6181C62.2262 72.6954 61.5853 71.8722 60.8012 71.196V71.196Z" fill="#D91895"/>
<path d="M55.1363 72.1711C53.6729 70.9525 52.3022 71.2508 52.0456 72.816C52.0224 73.8179 52.2313 74.8118 52.6564 75.7215C53.0815 76.6311 53.7115 77.4325 54.4981 78.064C56.1248 79.4129 57.5506 79.1282 57.6376 77.434C57.6023 76.435 57.3624 75.4535 56.9325 74.5488C56.5025 73.6442 55.8915 72.8353 55.1363 72.1711Z" fill="#D91895"/>
<path d="M49.1053 72.8543C47.6507 71.5123 46.2327 71.5332 45.8808 72.8565C45.8255 73.8017 45.9939 74.7466 46.3726 75.6161C46.7513 76.4857 47.3298 77.2558 48.0621 77.8654C49.6466 79.3403 51.1671 79.3909 51.3828 77.9373C51.3813 76.98 51.178 76.0335 50.7858 75.1583C50.3937 74.2831 49.8213 73.4984 49.1053 72.8543Z" fill="#D91895"/>
<path d="M42.7893 73.1783C41.4004 71.6707 39.9632 71.3582 39.4986 72.4032C39.3861 73.2757 39.4879 74.1622 39.7955 74.9875C40.1031 75.8128 40.6075 76.5524 41.2657 77.1438C42.7428 78.7624 44.3261 79.2095 44.6959 78.0548C44.7514 77.1541 44.6099 76.2522 44.2808 75.4106C43.9518 74.569 43.443 73.8076 42.7893 73.1783V73.1783Z" fill="#D91895"/>
<path d="M36.1225 72.9648C34.8171 71.3852 33.4132 70.84 32.8975 71.6515C32.3878 72.4652 32.9944 74.3814 34.351 76.0376C35.7076 77.6938 37.263 78.4014 37.7231 77.5082C38.1851 76.6198 37.4256 74.5378 36.1225 72.9648Z" fill="#D91895"/>
<path d="M29.2848 72.2857C28.098 70.6736 26.7654 69.9326 26.2305 70.5411C25.7001 71.1519 26.1759 72.9071 27.3792 74.5614C28.5797 76.2121 30.0536 77.1154 30.5683 76.4626C31.083 75.8098 30.4691 73.8958 29.2848 72.2857Z" fill="#D91895"/>
<path d="M22.4228 71.2351C21.3763 69.6157 20.154 68.7196 19.6267 69.156C19.1035 69.5969 19.4717 71.2186 20.5093 72.8473C21.5468 74.4759 22.879 75.5002 23.4088 75.0481C23.9387 74.5961 23.4662 72.8473 22.4228 71.2351Z" fill="#D91895"/>
<path d="M15.6909 69.9282C14.7907 68.3117 13.6934 67.2726 13.1994 67.5714C12.7055 67.8703 12.9965 69.3987 13.8803 71.0152C14.7605 72.6318 15.9238 73.7359 16.4329 73.4375C16.942 73.1392 16.5897 71.544 15.6909 69.9282Z" fill="#D91895"/>
<path d="M9.63483 71.8304C10.0878 71.6507 9.9001 70.1356 9.2155 68.4462C8.53089 66.7568 7.60867 65.5329 7.15566 65.7125C6.70264 65.8922 6.89038 67.4074 7.57499 69.0968C8.25959 70.7862 9.18181 72.0101 9.63483 71.8304Z" fill="#D91895"/>
<path d="M85.4058 60.8798C84.5948 59.3779 83.8801 58.2234 83.5516 58.4803C83.2318 58.7295 83.4779 60.3645 84.3554 61.9739C85.2275 63.591 86.342 64.4551 86.5975 64.0937C86.8579 63.7268 86.2112 62.388 85.4058 60.8798Z" fill="#D91895"/>
<path d="M81.7737 60.3718C80.9869 58.7453 80.2268 57.7595 79.8787 58.2926C79.6468 59.709 79.9601 61.16 80.7566 62.3591C81.6661 64.0318 82.7361 64.8142 82.9523 64.2396C82.8974 62.8723 82.4918 61.5413 81.7737 60.3718V60.3718Z" fill="#D91895"/>
<path d="M77.8061 59.8313C76.9869 58.2276 76.129 57.5451 75.7629 58.3864C75.5211 59.9586 75.8893 61.5631 76.7937 62.8779C77.7788 64.4936 78.8415 65.0404 79.0363 64.1948C79.0148 62.6595 78.5909 61.156 77.8061 59.8313V59.8313Z" fill="#D91895"/>
<path d="M73.4832 59.4469C72.5832 57.9629 71.5955 57.6575 71.2212 58.8056C71.0976 59.6449 71.1445 60.5 71.3591 61.3211C71.5737 62.1422 71.9517 62.9126 72.471 63.5874C73.559 65.0722 74.6445 65.3008 74.8284 64.1562C74.8496 62.4908 74.3823 60.8551 73.4832 59.4469V59.4469Z" fill="#D91895"/>
<path d="M68.805 59.2633C67.7895 57.9608 66.6567 58.0589 66.2833 59.4933C66.1538 60.3801 66.2222 61.2842 66.4838 62.1421C66.7453 62.9999 67.1937 63.7907 67.7972 64.4588C69.0073 65.7699 70.1402 65.634 70.3189 64.1996C70.3949 62.4319 69.861 60.6912 68.805 59.2633V59.2633Z" fill="#D91895"/>
<path d="M63.7856 59.2491C62.6281 58.1607 61.3475 58.6477 60.9814 60.3317C60.8409 61.2575 60.9315 62.2033 61.2453 63.0866C61.5591 63.9699 62.0865 64.7638 62.7816 65.3991C64.1275 66.5208 65.33 66.0197 65.5102 64.3079C65.5814 63.3933 65.4653 62.4739 65.169 61.6046C64.8727 60.7354 64.4022 59.9343 63.7856 59.2491Z" fill="#D91895"/>
<path d="M58.5182 59.7652C57.3041 58.6954 55.9508 59.1879 55.5435 60.8415C55.3842 61.7585 55.4647 62.7006 55.7773 63.5782C56.0898 64.4558 56.6241 65.2397 57.3293 65.8554C58.7134 66.9844 60.008 66.5072 60.2473 64.799C60.3472 63.886 60.2443 62.9624 59.9456 62.0929C59.6469 61.2234 59.1598 60.4289 58.5182 59.7652V59.7652Z" fill="#D91895"/>
<path d="M52.9443 60.5332C51.7166 59.3858 50.3526 59.6626 49.9077 61.1147C49.745 61.9892 49.8129 62.8904 50.1048 63.7313C50.3968 64.5723 50.9029 65.3247 51.5743 65.9158C52.9429 67.138 54.3055 66.9102 54.6088 65.3876C54.7161 64.5068 54.6223 63.6134 54.3342 62.7733C54.0461 61.9331 53.5711 61.1676 52.9443 60.5332V60.5332Z" fill="#D91895"/>
<path d="M47.1023 61.1751C45.8813 59.9481 44.5184 60.0027 44.0403 61.2477C43.8737 62.0722 43.9266 62.9253 44.1939 63.7235C44.4611 64.5216 44.9335 65.2373 45.5647 65.8004C46.8961 67.1002 48.3019 67.1221 48.6654 65.8075C48.782 64.9684 48.7016 64.1141 48.4305 63.3107C48.1595 62.5074 47.7049 61.7766 47.1023 61.1751V61.1751Z" fill="#D91895"/>
<path d="M41.0796 61.6607C39.9151 60.3097 38.5727 60.0848 38.0426 61.0963C37.8496 61.8615 37.8635 62.6635 38.0829 63.4218C38.3023 64.1801 38.7195 64.8679 39.2926 65.4162C40.5353 66.8234 41.9566 67.1545 42.4069 66.0853C42.5523 65.2965 42.5078 64.4849 42.2773 63.7162C42.0467 62.9475 41.6364 62.2434 41.0796 61.6607Z" fill="#D91895"/>
<path d="M34.8109 61.8401C33.702 60.4377 32.4028 60.0165 31.8621 60.8357C31.3253 61.6528 31.7846 63.4273 32.9411 64.8688C34.0977 66.3103 35.4841 66.8412 35.9743 65.9808C36.1343 65.249 36.112 64.4897 35.9093 63.7684C35.7066 63.047 35.3297 62.3853 34.8109 61.8401V61.8401Z" fill="#D91895"/>
<path d="M28.4152 61.7546C27.3821 60.3154 26.1439 59.7196 25.6079 60.3637C25.0765 61.0044 25.4627 62.6622 26.5187 64.1227C27.5747 65.5832 28.8931 66.2802 29.4034 65.6138C29.9136 64.9474 29.4478 63.1888 28.4152 61.7546Z" fill="#D91895"/>
<path d="M21.9643 61.4262C21.0189 59.9592 19.8614 59.2004 19.3444 59.6879C18.8273 60.1754 19.1548 61.7379 20.1046 63.2128C21.0509 64.689 22.2715 65.5218 22.7817 65.0222C23.292 64.5226 22.9087 62.8899 21.9643 61.4262Z" fill="#D91895"/>
<path d="M15.5364 60.8827C14.6851 59.3821 13.6169 58.4671 13.1305 58.8164C12.644 59.1657 12.9252 60.6636 13.7715 62.1683C14.6178 63.6731 15.7184 64.6223 16.2093 64.2667C16.7002 63.911 16.3874 62.3848 15.5364 60.8827Z" fill="#D91895"/>
<path d="M9.85198 63.3483C10.3024 63.1169 10.0115 61.6791 9.20212 60.1369C8.39275 58.5946 7.37146 57.5319 6.921 57.7632C6.47055 57.9946 6.7615 59.4323 7.57087 60.9746C8.38024 62.5169 9.40153 63.5796 9.85198 63.3483Z" fill="#D91895"/>
<path d="M84.0604 51.5387C83.9091 49.8792 83.6593 48.5997 83.2556 48.7694C82.8585 48.9367 82.5341 50.5638 82.7737 52.3092C83.0062 54.0605 83.6409 55.1874 83.9498 54.9319C84.2659 53.8267 84.3039 52.6617 84.0604 51.5387V51.5387Z" fill="#D91895"/>
<path d="M80.9506 50.2523C80.7318 48.5418 80.2905 47.4663 79.7853 47.9429C79.1497 49.2113 79.0116 50.6676 79.3977 52.0308C79.7572 53.7804 80.4812 54.7122 80.8359 54.2032C81.1941 52.9144 81.2335 51.5593 80.9506 50.2523Z" fill="#D91895"/>
<path d="M77.3183 49.2101C76.977 47.552 76.3039 46.7981 75.7154 47.6022C75.0723 49.0217 75.003 50.6308 75.5216 52.0993C76.0427 53.7566 76.883 54.3958 77.2879 53.6002C77.6833 52.1643 77.6938 50.6513 77.3183 49.2101V49.2101Z" fill="#D91895"/>
<path d="M73.1902 48.4883C72.679 46.9647 71.7608 46.606 71.1119 47.7316C70.7921 48.4882 70.6346 49.3023 70.6494 50.1222C70.6643 50.9422 70.851 51.7501 71.198 52.495C71.9028 53.9951 72.8732 54.2861 73.3257 53.1897C73.7599 51.6448 73.7127 50.0062 73.1902 48.4883V48.4883Z" fill="#D91895"/>
<path d="M68.6079 48.0884C67.8972 46.7581 66.735 46.8271 66.0548 48.2454C65.7323 49.0396 65.6027 49.8977 65.6765 50.7505C65.7502 51.6033 66.0252 52.4271 66.4794 53.1556C67.379 54.4572 68.4881 54.3745 68.9794 52.989C69.4588 51.3648 69.3268 49.6237 68.6079 48.0884V48.0884Z" fill="#D91895"/>
<path d="M63.6223 47.9645C62.6949 46.8645 61.3056 47.3541 60.6184 49.0255C60.2891 49.8469 60.1894 50.7408 60.3296 51.6135C60.4699 52.4862 60.845 53.3055 61.4155 53.9854C62.5134 55.0737 63.7635 54.6159 64.2858 52.9601C64.5525 52.1302 64.6313 51.2525 64.5167 50.3892C64.402 49.5258 64.0966 48.698 63.6223 47.9645V47.9645Z" fill="#D91895"/>
<path d="M58.2752 48.477C57.2638 47.4226 55.8123 47.9434 55.1243 49.5916C54.7962 50.4039 54.7066 51.2913 54.866 52.1518C55.0253 53.0122 55.427 53.8106 56.0249 54.4551C57.1824 55.5193 58.5099 55.058 59.0553 53.4041C59.3324 52.5809 59.4062 51.704 59.2704 50.8468C59.1347 49.9896 58.7935 49.177 58.2752 48.477V48.477Z" fill="#D91895"/>
<path d="M52.5941 49.3529C52.385 49.1005 52.1093 48.9104 51.7976 48.8037C51.4858 48.697 51.1503 48.678 50.8283 48.7487C50.5063 48.8194 50.2104 48.9772 49.9736 49.2043C49.7368 49.4315 49.5683 49.7192 49.4869 50.0354C49.1826 50.8138 49.1078 51.6617 49.2712 52.4804C49.4346 53.2992 49.8296 54.0553 50.4102 54.6608C50.5987 54.9272 50.8616 55.1335 51.1667 55.2545C51.4719 55.3755 51.806 55.4059 52.1284 55.3421C52.4507 55.2782 52.7473 55.1228 52.9817 54.8948C53.2162 54.6669 53.3785 54.3763 53.4487 54.0586C53.708 53.2651 53.7657 52.4207 53.6166 51.6C53.4676 50.7792 53.1164 50.0075 52.5941 49.3529V49.3529Z" fill="#D91895"/>
<path d="M46.6955 50.2174C46.5294 49.9526 46.2931 49.738 46.0122 49.597C45.7313 49.4561 45.4166 49.3941 45.1026 49.418C44.7885 49.4418 44.4871 49.5506 44.2313 49.7323C43.9754 49.9141 43.7749 50.1618 43.6517 50.4486C43.3725 51.1883 43.3111 51.9913 43.4749 52.7641C43.6386 53.537 44.0207 54.248 44.5767 54.8145C45.7114 55.9976 47.0594 55.9556 47.593 54.6715C47.8344 53.9144 47.8788 53.1092 47.7219 52.3305C47.565 51.5519 47.212 50.8251 46.6955 50.2174V50.2174Z" fill="#D91895"/>
<path d="M40.6725 51.0331C39.6754 49.7722 38.3558 49.6363 37.7289 50.6758C37.4553 51.3714 37.3848 52.129 37.5253 52.8624C37.6658 53.5957 38.0116 54.2753 38.5234 54.8237C39.5918 56.1034 40.9213 56.3298 41.4773 55.2722C41.7157 54.5558 41.7669 53.7914 41.6262 53.0502C41.4855 52.309 41.1574 51.6151 40.6725 51.0331V51.0331Z" fill="#D91895"/>
<path d="M34.4675 51.6432C33.4946 50.3395 32.2301 50.0188 31.6367 50.8731C31.3848 51.5263 31.3225 52.2363 31.4569 52.9227C31.5914 53.6092 31.9171 54.2448 32.3973 54.7578C33.4156 56.0731 34.7053 56.4796 35.2516 55.6098C35.4775 54.9378 35.5241 54.2195 35.3867 53.5245C35.2493 52.8295 34.9327 52.1814 34.4675 51.6432V51.6432Z" fill="#D91895"/>
<path d="M28.1751 52.0571C27.2394 50.7174 26.0356 50.2195 25.4755 50.9043C24.9154 51.5891 25.2323 53.2012 26.1912 54.549C27.1501 55.8967 28.3811 56.4652 28.9142 55.7719C29.4474 55.0787 29.108 53.3962 28.1751 52.0571Z" fill="#D91895"/>
<path d="M21.8333 52.2582C20.949 50.8782 19.8132 50.2109 19.2899 50.7385C18.7666 51.2661 19.0603 52.7984 19.955 54.184C20.8498 55.5695 22.0052 56.2844 22.5178 55.7507C23.0304 55.2169 22.7174 53.6372 21.8333 52.2582Z" fill="#D91895"/>
<path d="M15.4915 52.2296C14.6653 50.7981 13.6058 49.9605 13.1179 50.347C12.6334 50.7327 12.9047 52.2076 13.7314 53.6458C14.5582 55.0841 15.6271 55.9412 16.1136 55.5471C16.6 55.1529 16.3174 53.6617 15.4915 52.2296Z" fill="#D91895"/>
<path d="M9.95291 55.0565C10.4023 54.795 10.064 53.4014 9.19711 51.9439C8.33026 50.4864 7.2632 49.517 6.81377 49.7786C6.36434 50.0402 6.70272 51.4338 7.56957 52.8912C8.43642 54.3487 9.50348 55.3181 9.95291 55.0565Z" fill="#D91895"/>
<path d="M86.4211 42.3281C86.9277 40.6629 87.1604 39.2187 86.6816 39.1581C86.2089 39.0975 85.2841 40.5532 84.8665 42.3388C84.4417 44.1254 84.612 45.4761 84.9963 45.4191C85.3862 45.3586 85.9089 43.9993 86.4211 42.3281Z" fill="#D91895"/>
<path d="M83.7901 39.516C84.1711 37.734 84.0655 36.4517 83.3762 36.7657C82.3054 37.8219 81.6714 39.2353 81.5981 40.7294C81.37 42.5614 81.7531 43.6791 82.2808 43.3229C83.1002 42.2001 83.6194 40.8906 83.7901 39.516V39.516Z" fill="#D91895"/>
<path d="M80.3785 37.3529C80.5444 35.5853 80.0444 34.6509 79.177 35.3817C78.1106 36.6582 77.5536 38.2768 77.6111 39.9319C77.6404 41.679 78.2774 42.4495 78.9427 41.7488C79.8039 40.434 80.2992 38.9176 80.3785 37.3529V37.3529Z" fill="#D91895"/>
<path d="M76.2346 35.9515C76.1212 34.3192 75.215 33.8631 74.2243 35.0069C73.7042 35.7066 73.3297 36.5015 73.1226 37.3455C72.9155 38.1896 72.8798 39.0659 73.0177 39.9236C73.3354 41.4817 74.235 41.8329 75.0214 40.7698C75.9088 39.322 76.3318 37.642 76.2346 35.9515V35.9515Z" fill="#D91895"/>
<path d="M71.4491 35.3065C71.0197 33.907 69.7366 33.9916 68.6757 35.5052C68.163 36.2371 67.8291 37.0768 67.7005 37.9581C67.5718 38.8395 67.6518 39.7384 67.9343 40.5839C68.548 41.8876 69.6994 41.7879 70.5769 40.3765C71.4914 38.8514 71.8022 37.0451 71.4491 35.3065Z" fill="#D91895"/>
<path d="M66.1337 35.3198C65.3794 34.2122 63.7694 34.8372 62.6961 36.6522C62.1826 37.3946 61.8901 38.2647 61.8518 39.1635C61.8134 40.0623 62.0308 40.9537 62.4792 41.7363C63.3798 42.7602 64.7608 42.2121 65.6963 40.4809C66.1692 39.7133 66.455 38.8473 66.5309 37.9514C66.6068 37.0556 66.4708 36.1546 66.1337 35.3198V35.3198Z" fill="#D91895"/>
<path d="M60.3081 36.2941C59.4291 35.2818 57.771 35.9954 56.7535 37.8023C56.2605 38.5363 56.0016 39.3999 56.0106 40.2812C56.0196 41.1624 56.296 42.0207 56.8039 42.7447C57.7998 43.7054 59.243 43.1028 60.1504 41.3482C60.6129 40.59 60.8703 39.7268 60.898 38.8416C60.9256 37.9564 60.7225 37.0791 60.3081 36.2941V36.2941Z" fill="#D91895"/>
<path d="M54.1167 37.8519C53.2032 36.8167 51.6398 37.3449 50.7321 38.9499C50.2923 39.6619 50.0808 40.4889 50.1254 41.3221C50.17 42.1552 50.4686 42.9555 50.9819 43.6176C51.9886 44.6258 53.3985 44.2119 54.213 42.632C54.628 41.8987 54.8378 41.0692 54.8208 40.229C54.8039 39.3888 54.5609 38.5683 54.1167 37.8519V37.8519Z" fill="#D91895"/>
<path d="M47.7765 39.494C46.8424 38.4204 45.3697 38.7327 44.5629 40.1197C44.1774 40.8057 44.0106 41.591 44.0844 42.3724C44.1581 43.1538 44.4689 43.895 44.9761 44.4985C45.1768 44.7475 45.4413 44.9388 45.742 45.0524C46.0428 45.1661 46.3688 45.198 46.6862 45.1448C47.0036 45.0916 47.3008 44.9553 47.547 44.75C47.7931 44.5447 47.9791 44.2779 48.0858 43.9774C48.4518 43.2731 48.6165 42.4832 48.562 41.6931C48.5074 40.903 48.2358 40.1426 47.7765 39.494V39.494Z" fill="#D91895"/>
<path d="M41.3947 41.0931C41.2458 40.8271 41.028 40.6052 40.7637 40.45C40.4994 40.2948 40.1982 40.212 39.8908 40.21C39.5835 40.2081 39.2812 40.2871 39.0149 40.4389C38.7486 40.5907 38.528 40.8099 38.3756 41.0739C38.0253 41.7306 37.8781 42.4748 37.9525 43.2137C38.0269 43.9525 38.3196 44.6534 38.794 45.2288C39.7566 46.4072 41.0707 46.4789 41.7562 45.3388C42.0871 44.6643 42.2281 43.914 42.1645 43.1669C42.1009 42.4197 41.835 41.7034 41.3947 41.0931Z" fill="#D91895"/>
<path d="M34.9237 42.4313C34.0233 41.1983 32.7297 40.9999 32.0625 41.9328C31.7583 42.5588 31.6448 43.2588 31.7355 43.9476C31.8263 44.6364 32.1175 45.2842 32.5737 45.8122C33.5148 47.0435 34.7752 47.3187 35.401 46.384C35.692 45.7444 35.8013 45.0385 35.7172 44.3421C35.6331 43.6456 35.3588 42.985 34.9237 42.4313V42.4313Z" fill="#D91895"/>
<path d="M28.4394 43.4567C27.5534 42.1722 26.3327 41.762 25.7309 42.4997C25.4682 43.0969 25.3823 43.7556 25.4833 44.3992C25.5842 45.0429 25.8679 45.6449 26.3013 46.1352C27.2109 47.4226 28.4137 47.8919 28.9894 47.1513C29.2446 46.5439 29.3283 45.8794 29.2314 45.2287C29.1346 44.578 28.8608 43.9655 28.4394 43.4567V43.4567Z" fill="#D91895"/>
<path d="M21.9682 44.1067C21.1089 42.7616 19.9612 42.1431 19.4168 42.6981C18.8725 43.2531 19.1455 44.7844 20.0151 46.1379C20.8847 47.4914 22.0215 48.1461 22.5527 47.5811C23.0839 47.0161 22.8265 45.449 21.9682 44.1067Z" fill="#D91895"/>
<path d="M15.5413 44.315C14.7221 42.8939 13.6525 42.0658 13.1576 42.4537C12.6626 42.8415 12.9326 44.3217 13.7541 45.7575C14.5756 47.1933 15.6366 48.0336 16.1285 47.6292C16.6203 47.2249 16.3601 45.7366 15.5413 44.315Z" fill="#D91895"/>
<path d="M9.89806 47.1696C10.3489 46.9243 10.0369 45.5072 9.2013 44.0044C8.36569 42.5015 7.32285 41.4821 6.87205 41.7274C6.42125 41.9727 6.7332 43.3899 7.56881 44.8927C8.40442 46.3955 9.44726 47.4149 9.89806 47.1696Z" fill="#D91895"/>
<path d="M92.4924 34.5652C93.6581 33.0761 94.3656 31.4862 93.8034 31.0905C93.2484 30.6958 91.7298 31.8348 90.6686 33.529C89.599 35.2251 89.305 36.6994 89.7562 36.8922C90.2147 37.0814 91.3203 36.0604 92.4924 34.5652Z" fill="#D91895"/>
<path d="M90.2811 29.8104C91.2373 28.0007 91.4325 26.4284 90.5459 26.4903C89.6643 26.5511 88.1916 28.289 87.4156 30.1874C86.6356 32.0911 86.7081 33.3923 87.41 33.2468C88.1149 33.0943 89.3203 31.6258 90.2811 29.8104Z" fill="#D91895"/>
<path d="M86.9269 26.0367C87.5577 24.1077 87.1771 22.8692 86.018 23.4768C84.5249 24.6379 83.5033 26.2913 83.1396 28.1354C82.7281 30.0334 83.2101 30.9838 84.1463 30.4215C85.482 29.2564 86.4478 27.7334 86.9269 26.0367Z" fill="#D91895"/>
<path d="M82.5273 23.4802C82.7529 21.6342 81.7967 20.9647 80.4425 22.1232C79.0004 23.5206 78.1367 25.3995 78.02 27.3931C78.0128 29.1103 78.9063 29.5833 80.0427 28.5626C81.3842 27.1647 82.2526 25.3884 82.5273 23.4802V23.4802Z" fill="#D91895"/>
<path d="M77.2421 22.1798C77.0264 20.584 75.547 20.6047 74.0815 22.2565C73.3925 22.997 72.8729 23.8758 72.5581 24.8329C72.2434 25.79 72.1409 26.803 72.2577 27.8028C72.6598 29.2232 73.9338 29.1529 75.2164 27.6836C76.5519 26.1573 77.273 24.1982 77.2421 22.1798Z" fill="#D91895"/>
<path d="M71.2612 22.0111C70.6011 20.7768 68.686 21.5011 67.1932 23.5448C66.5155 24.2838 66.052 25.19 65.8513 26.1678C65.6507 27.1456 65.7204 28.1588 66.0531 29.1007C66.8374 30.1701 68.4434 29.5495 69.8162 27.672C70.4822 26.9027 70.9592 25.9913 71.2098 25.0092C71.4605 24.0271 71.4781 23.001 71.2612 22.0111V22.0111Z" fill="#D91895"/>
<path d="M64.5934 23.254C63.7686 22.1792 61.8118 23.0791 60.4256 25.1416C59.0384 27.1987 58.7932 29.5511 59.7037 30.5096C60.6192 31.4682 62.2789 30.7316 63.5827 28.7857C64.8808 26.845 65.4224 24.328 64.5934 23.254Z" fill="#D91895"/>
<path d="M57.5101 25.4108C56.6415 24.3537 54.8408 25.0887 53.6447 26.9286C53.0777 27.6307 52.7394 28.4864 52.6743 29.3827C52.6092 30.279 52.8205 31.1738 53.2801 31.9489C54.2173 32.931 55.7863 32.3645 56.9171 30.5953C57.4788 29.8641 57.8304 28.9964 57.9348 28.0838C58.0392 27.1712 57.8925 26.2477 57.5101 25.4108V25.4108Z" fill="#D91895"/>
<path d="M50.3452 27.8258C49.4487 26.7593 47.7951 27.267 46.7718 28.8572C46.2816 29.5332 46.0137 30.3421 46.0043 31.174C45.995 32.0059 46.2447 32.8205 46.7195 33.5071C47.6691 34.5299 49.1474 34.1683 50.1175 32.6237C50.6058 31.9253 50.8861 31.1053 50.9263 30.257C50.9666 29.4088 50.7652 28.5664 50.3452 27.8258V27.8258Z" fill="#D91895"/>
<path d="M43.2383 30.2638C43.0425 30.0001 42.7806 29.7915 42.4783 29.6586C42.1761 29.5257 41.844 29.4731 41.515 29.506C41.1859 29.5389 40.8712 29.6562 40.602 29.8463C40.3327 30.0363 40.1183 30.2926 39.9798 30.5898C39.5487 31.2405 39.3252 32.0044 39.3382 32.7824C39.3513 33.5604 39.6002 34.3165 40.0529 34.9528C40.2286 35.2169 40.472 35.4301 40.7582 35.5708C41.0443 35.7114 41.3631 35.7745 41.682 35.7535C42.0009 35.7325 42.3084 35.6282 42.5732 35.4513C42.838 35.2744 43.0507 35.0311 43.1895 34.7463C43.6166 34.077 43.8473 33.3034 43.8559 32.5119C43.8645 31.7205 43.6507 30.9422 43.2383 30.2638V30.2638Z" fill="#D91895"/>
<path d="M36.1619 32.4241C36.0225 32.1558 35.8155 31.9275 35.5609 31.7614C35.3063 31.5953 35.0127 31.497 34.7085 31.4759C34.4042 31.4549 34.0997 31.5118 33.8242 31.6412C33.5487 31.7706 33.3115 31.9681 33.1357 32.2146C32.7725 32.8351 32.6058 33.5491 32.657 34.2644C32.7082 34.9797 32.9751 35.6633 33.4231 36.227C34.3289 37.4139 35.6233 37.5734 36.3613 36.5305C36.724 35.8974 36.8978 35.1756 36.8625 34.4487C36.8272 33.7219 36.5843 33.0199 36.1619 32.4241V32.4241Z" fill="#D91895"/>
<path d="M29.195 34.1898C28.323 32.9423 27.0375 32.6388 26.3724 33.4613C26.0705 34.054 25.9518 34.7216 26.0311 35.3807C26.1103 36.0398 26.3841 36.6612 26.8181 37.1673C27.7108 38.4116 28.9334 38.7896 29.5766 37.9691C29.881 37.368 30.0067 36.6938 29.9391 36.0248C29.8716 35.3558 29.6136 34.7195 29.195 34.1898V34.1898Z" fill="#D91895"/>
<path d="M22.3589 35.4488C21.4992 34.1384 20.3068 33.5978 19.7271 34.2046C19.1475 34.8113 19.4062 36.3498 20.2748 37.6671C21.1434 38.9844 22.2949 39.5722 22.8631 38.9566C23.4313 38.341 23.2193 36.7553 22.3589 35.4488Z" fill="#D91895"/>
<path d="M15.6822 36.0882C14.8535 34.6948 13.7554 33.9085 13.2465 34.3192C12.7376 34.7299 13.0066 36.2059 13.8361 37.6205C14.6655 39.0352 15.7388 39.8356 16.2465 39.4035C16.7543 38.9714 16.5105 37.481 15.6822 36.0882Z" fill="#D91895"/>
<path d="M9.90527 39.1421C10.359 38.8953 10.0493 37.4761 9.21357 35.9723C8.3778 34.4685 7.33243 33.4495 6.87867 33.6962C6.42491 33.943 6.7346 35.3622 7.57037 36.866C8.40614 38.3698 9.45151 39.3889 9.90527 39.1421Z" fill="#D91895"/>
</svg>
