<svg width="100" height="100" viewBox="0 0 100 100" fill="none" xmlns="http://www.w3.org/2000/svg">
<path d="M10 20C15.5228 20 20 15.5228 20 10C20 4.47715 15.5228 0 10 0C4.47715 0 0 4.47715 0 10C0 15.5228 4.47715 20 10 20Z" fill="white"/>
<path d="M30.1136 13.9535C32.3102 13.9535 34.0909 12.3917 34.0909 10.4651C34.0909 8.53854 32.3102 6.97674 30.1136 6.97674C27.9171 6.97674 26.1364 8.53854 26.1364 10.4651C26.1364 12.3917 27.9171 13.9535 30.1136 13.9535Z" fill="white"/>
<path d="M50 17C53.866 17 57 13.866 57 10C57 6.13401 53.866 3 50 3C46.134 3 43 6.13401 43 10C43 13.866 46.134 17 50 17Z" fill="white"/>
<path d="M69.8864 13.9535C72.083 13.9535 73.8636 12.3917 73.8636 10.4651C73.8636 8.53854 72.083 6.97674 69.8864 6.97674C67.6898 6.97674 65.9091 8.53854 65.9091 10.4651C65.9091 12.3917 67.6898 13.9535 69.8864 13.9535Z" fill="white"/>
<path d="M100 9.99813C100 15.5221 95.526 20 89.9994 20C84.4778 20 80 15.5221 80 9.99813C80 4.47791 84.4778 0 89.9994 0C95.526 0 100 4.47791 100 9.99813Z" fill="white"/>
<path d="M37.5 30.2351C37.5 34.085 34.4467 37.2093 30.6806 37.2093C26.9169 37.2093 23.8636 34.085 23.8636 30.2351C23.8636 26.3789 26.9169 23.2558 30.6806 23.2558C34.4479 23.2558 37.5 26.3789 37.5 30.2351Z" fill="white"/>
<path d="M50 33.7209C52.5104 33.7209 54.5455 31.8988 54.5455 29.6512C54.5455 27.4035 52.5104 25.5814 50 25.5814C47.4896 25.5814 45.4545 27.4035 45.4545 29.6512C45.4545 31.8988 47.4896 33.7209 50 33.7209Z" fill="white"/>
<path d="M76.1364 30.2351C76.1364 34.085 73.0883 37.2093 69.3213 37.2093C65.5555 37.2093 62.5 34.085 62.5 30.2351C62.5 26.3789 65.5555 23.2558 69.3213 23.2558C73.0883 23.2558 76.1364 26.3789 76.1364 30.2351Z" fill="white"/>
<path d="M30.1136 53.4884C32.3102 53.4884 34.0909 51.9266 34.0909 50C34.0909 48.0734 32.3102 46.5116 30.1136 46.5116C27.9171 46.5116 26.1364 48.0734 26.1364 50C26.1364 51.9266 27.9171 53.4884 30.1136 53.4884Z" fill="white"/>
<path d="M50 60C55.5228 60 60 55.5228 60 50C60 44.4772 55.5228 40 50 40C44.4772 40 40 44.4772 40 50C40 55.5228 44.4772 60 50 60Z" fill="white"/>
<path d="M69.8864 53.4884C72.083 53.4884 73.8636 51.9266 73.8636 50C73.8636 48.0734 72.083 46.5116 69.8864 46.5116C67.6898 46.5116 65.9091 48.0734 65.9091 50C65.9091 51.9266 67.6898 53.4884 69.8864 53.4884Z" fill="white"/>
<path d="M37.5 69.77C37.5 73.6199 34.4467 76.7442 30.6806 76.7442C26.9169 76.7442 23.8636 73.6199 23.8636 69.77C23.8636 65.9125 26.9169 62.7907 30.6806 62.7907C34.4479 62.7907 37.5 65.9125 37.5 69.77Z" fill="white"/>
<path d="M50 74.4186C52.5104 74.4186 54.5455 72.5965 54.5455 70.3488C54.5455 68.1012 52.5104 66.2791 50 66.2791C47.4896 66.2791 45.4545 68.1012 45.4545 70.3488C45.4545 72.5965 47.4896 74.4186 50 74.4186Z" fill="white"/>
<path d="M76.1364 69.77C76.1364 73.6199 73.0883 76.7442 69.3213 76.7442C65.5555 76.7442 62.5 73.6199 62.5 69.77C62.5 65.9125 65.5555 62.7907 69.3213 62.7907C73.0883 62.7907 76.1364 65.9125 76.1364 69.77Z" fill="white"/>
<path d="M20 90C20 95.5214 15.5213 100 9.99875 100C4.47375 100 0 95.5214 0 90C0 84.4711 4.47375 80 9.99875 80C15.5225 80 20 84.4711 20 90Z" fill="white"/>
<path d="M30.1136 94.186C32.3102 94.186 34.0909 92.3639 34.0909 90.1163C34.0909 87.8686 32.3102 86.0465 30.1136 86.0465C27.9171 86.0465 26.1364 87.8686 26.1364 90.1163C26.1364 92.3639 27.9171 94.186 30.1136 94.186Z" fill="white"/>
<path d="M50 96.5116C53.7656 96.5116 56.8182 93.6483 56.8182 90.1163C56.8182 86.5842 53.7656 83.7209 50 83.7209C46.2344 83.7209 43.1818 86.5842 43.1818 90.1163C43.1818 93.6483 46.2344 96.5116 50 96.5116Z" fill="white"/>
<path d="M69.8864 94.186C72.083 94.186 73.8636 92.3639 73.8636 90.1163C73.8636 87.8686 72.083 86.0465 69.8864 86.0465C67.6898 86.0465 65.9091 87.8686 65.9091 90.1163C65.9091 92.3639 67.6898 94.186 69.8864 94.186Z" fill="white"/>
<path d="M10.2273 74.4186C12.1101 74.4186 13.6364 72.5965 13.6364 70.3488C13.6364 68.1012 12.1101 66.2791 10.2273 66.2791C8.34449 66.2791 6.81818 68.1012 6.81818 70.3488C6.81818 72.5965 8.34449 74.4186 10.2273 74.4186Z" fill="white"/>
<path d="M9.99873 43C13.8672 43 17 46.1312 17 50.0006C17 53.865 13.866 57 9.99873 57C6.13275 57 3 53.865 3 50.0006C3 46.1312 6.13275 43 9.99873 43Z" fill="white"/>
<path d="M10.2273 33.7209C12.1101 33.7209 13.6364 31.8988 13.6364 29.6512C13.6364 27.4035 12.1101 25.5814 10.2273 25.5814C8.34449 25.5814 6.81818 27.4035 6.81818 29.6512C6.81818 31.8988 8.34449 33.7209 10.2273 33.7209Z" fill="white"/>
<path d="M89.7727 74.4186C91.6555 74.4186 93.1818 72.5965 93.1818 70.3488C93.1818 68.1012 91.6555 66.2791 89.7727 66.2791C87.8899 66.2791 86.3636 68.1012 86.3636 70.3488C86.3636 72.5965 87.8899 74.4186 89.7727 74.4186Z" fill="white"/>
<path d="M89.9968 43C93.8643 43 97 46.1318 97 49.9994C97 53.8644 93.8643 57 89.9968 57C86.1344 57 83 53.8644 83 49.9994C83 46.1318 86.1344 43 89.9968 43Z" fill="white"/>
<path d="M89.7727 33.7209C91.6555 33.7209 93.1818 31.8988 93.1818 29.6512C93.1818 27.4035 91.6555 25.5814 89.7727 25.5814C87.8899 25.5814 86.3636 27.4035 86.3636 29.6512C86.3636 31.8988 87.8899 33.7209 89.7727 33.7209Z" fill="white"/>
<path d="M100 90C100 95.52 95.526 100 89.9994 100C84.4778 100 80 95.52 80 90C80 84.4725 84.4778 80 89.9994 80C95.526 80 100 84.4725 100 90Z" fill="white"/>
</svg>
